<svg width="292" height="253" viewBox="0 0 292 253" fill="none" xmlns="http://www.w3.org/2000/svg">
<path d="M0 22H36M36 22L77 182H252C252 182 271.503 108.863 284 62M36 22L46.25 62H228H127L148 6H184L206 62C206 62 253.539 62 284 62M284 62C278.585 82.3073 270.133 114 270.133 114H59.575" stroke="black" stroke-width="12"/>
<path d="M134 225C134 236.954 123.903 247 111 247C98.0973 247 88 236.954 88 225C88 213.046 98.0973 203 111 203C123.903 203 134 213.046 134 225ZM244 225C244 236.954 233.903 247 221 247C208.097 247 198 236.954 198 225C198 213.046 208.097 203 221 203C233.903 203 244 213.046 244 225Z" stroke="black" stroke-width="12"/>
<rect x="1.5" y="-1.5" width="58" height="3" transform="matrix(1 0 0 -1 136 222)" fill="white" stroke="black" stroke-width="3"/>
<mask id="path-4-outside-1_0_1" maskUnits="userSpaceOnUse" x="216" y="152" width="28" height="21" fill="black">
<rect fill="white" x="216" y="152" width="28" height="21"/>
<path d="M217 165V153.2H217.6V165H217ZM219.4 165V153.2H220V165H219.4ZM220.6 165V153.2H221.8V165H220.6ZM218.8 166.74H220.12C220.627 166.74 221.007 166.84 221.26 167.04C221.527 167.24 221.66 167.52 221.66 167.88C221.66 168.107 221.6 168.313 221.48 168.5C221.347 168.687 221.173 168.82 220.96 168.9C221.227 168.993 221.44 169.147 221.6 169.36C221.76 169.587 221.84 169.827 221.84 170.08C221.84 170.48 221.693 170.8 221.4 171.04C221.12 171.267 220.687 171.38 220.1 171.38H218.8V166.74ZM220.04 168.66C220.773 168.66 221.14 168.413 221.14 167.92C221.14 167.707 221.053 167.533 220.88 167.4C220.72 167.253 220.467 167.18 220.12 167.18H219.3V168.66H220.04ZM220.2 170.92C220.92 170.92 221.28 170.627 221.28 170.04C221.28 169.413 220.873 169.1 220.06 169.1H219.3V170.92H220.2ZM223.602 165V153.2H224.202V165H223.602ZM225.402 165V153.2H226.002V165H225.402ZM227.202 165V153.2H229.602V165H227.202ZM227.542 167.9C227.902 167.9 228.202 168.027 228.442 168.28L228.202 168.68L228.182 168.76L228.122 168.72C228.108 168.667 228.095 168.627 228.082 168.6C228.055 168.56 228.008 168.52 227.942 168.48C227.822 168.4 227.675 168.36 227.502 168.36C227.328 168.36 227.162 168.407 227.002 168.5C226.842 168.58 226.715 168.713 226.622 168.9C226.515 169.087 226.462 169.313 226.462 169.58V171.38H225.922V167.98H226.482L226.462 168.6C226.555 168.387 226.702 168.213 226.902 168.08C227.102 167.96 227.315 167.9 227.542 167.9ZM230.203 165V153.2H230.803V165H230.203ZM233.203 165V153.2H234.403V165H233.203ZM235.003 165V153.2H235.603V165H235.003ZM232.383 170.94H233.263V168.42H232.423V167.98H233.783V170.94H234.583V171.38H232.383V170.94ZM233.503 167.26C233.396 167.26 233.303 167.227 233.223 167.16C233.156 167.08 233.123 166.987 233.123 166.88C233.123 166.773 233.156 166.687 233.223 166.62C233.29 166.54 233.383 166.5 233.503 166.5C233.596 166.5 233.683 166.54 233.763 166.62C233.843 166.7 233.883 166.787 233.883 166.88C233.883 166.987 233.843 167.08 233.763 167.16C233.683 167.227 233.596 167.26 233.503 167.26ZM236.805 165V153.2H239.205V165H236.805ZM239.805 165V153.2H241.605V165H239.805ZM242.205 165V153.2H242.805V165H242.205ZM238.525 167.98H239.025V168.32C239.105 168.2 239.205 168.1 239.325 168.02C239.445 167.94 239.571 167.9 239.705 167.9C239.851 167.9 239.985 167.947 240.105 168.04C240.211 168.133 240.278 168.253 240.305 168.4C240.371 168.253 240.478 168.133 240.625 168.04C240.758 167.947 240.911 167.9 241.085 167.9C241.298 167.9 241.465 167.98 241.585 168.14C241.691 168.3 241.738 168.513 241.725 168.78V171.38H241.245V168.98C241.245 168.687 241.218 168.5 241.165 168.42C241.111 168.34 241.031 168.3 240.925 168.3C240.831 168.3 240.745 168.34 240.665 168.42C240.585 168.5 240.518 168.607 240.465 168.74C240.411 168.873 240.385 169.007 240.385 169.14V171.38H239.885V169.02C239.885 168.74 239.858 168.553 239.805 168.46C239.751 168.353 239.651 168.3 239.505 168.3C239.438 168.3 239.365 168.333 239.285 168.4C239.205 168.467 239.138 168.567 239.085 168.7C239.045 168.82 239.025 168.96 239.025 169.12V171.38H238.525V167.98Z"/>
</mask>
<path d="M217 165V153.2H217.6V165H217ZM219.4 165V153.2H220V165H219.4ZM220.6 165V153.2H221.8V165H220.6ZM218.8 166.74H220.12C220.627 166.74 221.007 166.84 221.26 167.04C221.527 167.24 221.66 167.52 221.66 167.88C221.66 168.107 221.6 168.313 221.48 168.5C221.347 168.687 221.173 168.82 220.96 168.9C221.227 168.993 221.44 169.147 221.6 169.36C221.76 169.587 221.84 169.827 221.84 170.08C221.84 170.48 221.693 170.8 221.4 171.04C221.12 171.267 220.687 171.38 220.1 171.38H218.8V166.74ZM220.04 168.66C220.773 168.66 221.14 168.413 221.14 167.92C221.14 167.707 221.053 167.533 220.88 167.4C220.72 167.253 220.467 167.18 220.12 167.18H219.3V168.66H220.04ZM220.2 170.92C220.92 170.92 221.28 170.627 221.28 170.04C221.28 169.413 220.873 169.1 220.06 169.1H219.3V170.92H220.2ZM223.602 165V153.2H224.202V165H223.602ZM225.402 165V153.2H226.002V165H225.402ZM227.202 165V153.2H229.602V165H227.202ZM227.542 167.9C227.902 167.9 228.202 168.027 228.442 168.28L228.202 168.68L228.182 168.76L228.122 168.72C228.108 168.667 228.095 168.627 228.082 168.6C228.055 168.56 228.008 168.52 227.942 168.48C227.822 168.4 227.675 168.36 227.502 168.36C227.328 168.36 227.162 168.407 227.002 168.5C226.842 168.58 226.715 168.713 226.622 168.9C226.515 169.087 226.462 169.313 226.462 169.58V171.38H225.922V167.98H226.482L226.462 168.6C226.555 168.387 226.702 168.213 226.902 168.08C227.102 167.96 227.315 167.9 227.542 167.9ZM230.203 165V153.2H230.803V165H230.203ZM233.203 165V153.2H234.403V165H233.203ZM235.003 165V153.2H235.603V165H235.003ZM232.383 170.94H233.263V168.42H232.423V167.98H233.783V170.94H234.583V171.38H232.383V170.94ZM233.503 167.26C233.396 167.26 233.303 167.227 233.223 167.16C233.156 167.08 233.123 166.987 233.123 166.88C233.123 166.773 233.156 166.687 233.223 166.62C233.29 166.54 233.383 166.5 233.503 166.5C233.596 166.5 233.683 166.54 233.763 166.62C233.843 166.7 233.883 166.787 233.883 166.88C233.883 166.987 233.843 167.08 233.763 167.16C233.683 167.227 233.596 167.26 233.503 167.26ZM236.805 165V153.2H239.205V165H236.805ZM239.805 165V153.2H241.605V165H239.805ZM242.205 165V153.2H242.805V165H242.205ZM238.525 167.98H239.025V168.32C239.105 168.2 239.205 168.1 239.325 168.02C239.445 167.94 239.571 167.9 239.705 167.9C239.851 167.9 239.985 167.947 240.105 168.04C240.211 168.133 240.278 168.253 240.305 168.4C240.371 168.253 240.478 168.133 240.625 168.04C240.758 167.947 240.911 167.9 241.085 167.9C241.298 167.9 241.465 167.98 241.585 168.14C241.691 168.3 241.738 168.513 241.725 168.78V171.38H241.245V168.98C241.245 168.687 241.218 168.5 241.165 168.42C241.111 168.34 241.031 168.3 240.925 168.3C240.831 168.3 240.745 168.34 240.665 168.42C240.585 168.5 240.518 168.607 240.465 168.74C240.411 168.873 240.385 169.007 240.385 169.14V171.38H239.885V169.02C239.885 168.74 239.858 168.553 239.805 168.46C239.751 168.353 239.651 168.3 239.505 168.3C239.438 168.3 239.365 168.333 239.285 168.4C239.205 168.467 239.138 168.567 239.085 168.7C239.045 168.82 239.025 168.96 239.025 169.12V171.38H238.525V167.98Z" fill="white"/>
<path d="M217 165H216V166H217V165ZM217 153.2V152.2H216V153.2H217ZM217.6 153.2H218.6V152.2H217.6V153.2ZM217.6 165V166H218.6V165H217.6ZM219.4 165H218.4V166H219.4V165ZM219.4 153.2V152.2H218.4V153.2H219.4ZM220 153.2H221V152.2H220V153.2ZM220 165V166H221V165H220ZM220.6 165H219.6V166H220.6V165ZM220.6 153.2V152.2H219.6V153.2H220.6ZM221.8 153.2H222.8V152.2H221.8V153.2ZM221.8 165V166H222.8V165H221.8ZM218.8 166.74V165.74H217.8V166.74H218.8ZM221.26 167.04L220.64 167.825L220.65 167.833L220.66 167.84L221.26 167.04ZM221.48 168.5L222.294 169.081L222.308 169.061L222.321 169.041L221.48 168.5ZM220.96 168.9L220.609 167.964L218.026 168.932L220.63 169.844L220.96 168.9ZM221.6 169.36L222.417 168.783L222.409 168.772L222.4 168.76L221.6 169.36ZM221.4 171.04L222.029 171.817L222.033 171.814L221.4 171.04ZM218.8 171.38H217.8V172.38H218.8V171.38ZM220.88 167.4L220.204 168.137L220.236 168.166L220.27 168.193L220.88 167.4ZM219.3 167.18V166.18H218.3V167.18H219.3ZM219.3 168.66H218.3V169.66H219.3V168.66ZM219.3 169.1V168.1H218.3V169.1H219.3ZM219.3 170.92H218.3V171.92H219.3V170.92ZM218 165V153.2H216V165H218ZM217 154.2H217.6V152.2H217V154.2ZM216.6 153.2V165H218.6V153.2H216.6ZM217.6 164H217V166H217.6V164ZM220.4 165V153.2H218.4V165H220.4ZM219.4 154.2H220V152.2H219.4V154.2ZM219 153.2V165H221V153.2H219ZM220 164H219.4V166H220V164ZM221.6 165V153.2H219.6V165H221.6ZM220.6 154.2H221.8V152.2H220.6V154.2ZM220.8 153.2V165H222.8V153.2H220.8ZM221.8 164H220.6V166H221.8V164ZM218.8 167.74H220.12V165.74H218.8V167.74ZM220.12 167.74C220.311 167.74 220.443 167.759 220.531 167.782C220.616 167.805 220.642 167.826 220.64 167.825L221.88 166.255C221.374 165.856 220.731 165.74 220.12 165.74V167.74ZM220.66 167.84C220.669 167.847 220.67 167.849 220.667 167.845C220.664 167.841 220.66 167.836 220.657 167.83C220.654 167.824 220.655 167.823 220.656 167.829C220.657 167.836 220.66 167.852 220.66 167.88H222.66C222.66 167.234 222.401 166.646 221.86 166.24L220.66 167.84ZM220.66 167.88C220.66 167.919 220.653 167.937 220.639 167.959L222.321 169.041C222.547 168.689 222.66 168.294 222.66 167.88H220.66ZM220.666 167.919C220.648 167.945 220.635 167.954 220.609 167.964L221.311 169.836C221.712 169.686 222.046 169.428 222.294 169.081L220.666 167.919ZM220.63 169.844C220.721 169.876 220.766 169.915 220.8 169.96L222.4 168.76C222.114 168.378 221.732 168.111 221.29 167.956L220.63 169.844ZM220.783 169.937C220.836 170.011 220.84 170.053 220.84 170.08H222.84C222.84 169.6 222.684 169.162 222.417 168.783L220.783 169.937ZM220.84 170.08C220.84 170.156 220.827 170.191 220.821 170.203C220.816 170.214 220.805 170.235 220.767 170.266L222.033 171.814C222.573 171.372 222.84 170.761 222.84 170.08H220.84ZM220.771 170.263C220.75 170.279 220.591 170.38 220.1 170.38V172.38C220.782 172.38 221.49 172.254 222.029 171.817L220.771 170.263ZM220.1 170.38H218.8V172.38H220.1V170.38ZM219.8 171.38V166.74H217.8V171.38H219.8ZM220.04 169.66C220.487 169.66 220.998 169.59 221.423 169.305C221.918 168.972 222.14 168.454 222.14 167.92H220.14C220.14 167.919 220.141 167.87 220.175 167.8C220.212 167.726 220.265 167.674 220.307 167.645C220.342 167.621 220.351 167.627 220.302 167.638C220.254 167.649 220.17 167.66 220.04 167.66V169.66ZM222.14 167.92C222.14 167.387 221.902 166.924 221.49 166.607L220.27 168.193C220.253 168.179 220.213 168.142 220.181 168.077C220.148 168.011 220.14 167.953 220.14 167.92H222.14ZM221.556 166.663C221.128 166.271 220.575 166.18 220.12 166.18V168.18C220.172 168.18 220.212 168.183 220.241 168.186C220.271 168.19 220.287 168.194 220.292 168.196C220.302 168.198 220.26 168.188 220.204 168.137L221.556 166.663ZM220.12 166.18H219.3V168.18H220.12V166.18ZM218.3 167.18V168.66H220.3V167.18H218.3ZM219.3 169.66H220.04V167.66H219.3V169.66ZM220.2 171.92C220.67 171.92 221.208 171.828 221.642 171.475C222.114 171.09 222.28 170.548 222.28 170.04H220.28C220.28 170.086 220.273 170.081 220.287 170.046C220.294 170.029 220.306 170.007 220.323 169.983C220.34 169.96 220.359 169.94 220.378 169.925C220.417 169.893 220.437 169.893 220.41 169.9C220.381 169.908 220.315 169.92 220.2 169.92V171.92ZM222.28 170.04C222.28 169.493 222.089 168.931 221.585 168.543C221.131 168.193 220.567 168.1 220.06 168.1V170.1C220.202 170.1 220.293 170.114 220.345 170.127C220.395 170.14 220.392 170.148 220.365 170.127C220.332 170.102 220.303 170.064 220.286 170.026C220.272 169.993 220.28 169.99 220.28 170.04H222.28ZM220.06 168.1H219.3V170.1H220.06V168.1ZM218.3 169.1V170.92H220.3V169.1H218.3ZM219.3 171.92H220.2V169.92H219.3V171.92ZM223.602 165H222.602V166H223.602V165ZM223.602 153.2V152.2H222.602V153.2H223.602ZM224.202 153.2H225.202V152.2H224.202V153.2ZM224.202 165V166H225.202V165H224.202ZM225.402 165H224.402V166H225.402V165ZM225.402 153.2V152.2H224.402V153.2H225.402ZM226.002 153.2H227.002V152.2H226.002V153.2ZM226.002 165V166H227.002V165H226.002ZM227.202 165H226.202V166H227.202V165ZM227.202 153.2V152.2H226.202V153.2H227.202ZM229.602 153.2H230.602V152.2H229.602V153.2ZM229.602 165V166H230.602V165H229.602ZM228.442 168.28L229.299 168.794L229.69 168.143L229.168 167.592L228.442 168.28ZM228.202 168.68L227.344 168.166L227.268 168.293L227.231 168.437L228.202 168.68ZM228.182 168.76L227.627 169.592L228.808 170.379L229.152 169.003L228.182 168.76ZM228.122 168.72L227.151 168.963L227.245 169.338L227.567 169.552L228.122 168.72ZM228.082 168.6L228.976 168.153L228.948 168.097L228.914 168.045L228.082 168.6ZM227.942 168.48L227.387 169.312L227.407 169.325L227.427 169.337L227.942 168.48ZM227.002 168.5L227.449 169.394L227.478 169.38L227.505 169.364L227.002 168.5ZM226.622 168.9L227.49 169.396L227.504 169.372L227.516 169.347L226.622 168.9ZM226.462 171.38V172.38H227.462V171.38H226.462ZM225.922 171.38H224.922V172.38H225.922V171.38ZM225.922 167.98V166.98H224.922V167.98H225.922ZM226.482 167.98L227.481 168.012L227.514 166.98H226.482V167.98ZM226.462 168.6L225.462 168.568L227.378 169.001L226.462 168.6ZM226.902 168.08L226.387 167.223L226.367 167.235L226.347 167.248L226.902 168.08ZM224.602 165V153.2H222.602V165H224.602ZM223.602 154.2H224.202V152.2H223.602V154.2ZM223.202 153.2V165H225.202V153.2H223.202ZM224.202 164H223.602V166H224.202V164ZM226.402 165V153.2H224.402V165H226.402ZM225.402 154.2H226.002V152.2H225.402V154.2ZM225.002 153.2V165H227.002V153.2H225.002ZM226.002 164H225.402V166H226.002V164ZM228.202 165V153.2H226.202V165H228.202ZM227.202 154.2H229.602V152.2H227.202V154.2ZM228.602 153.2V165H230.602V153.2H228.602ZM229.602 164H227.202V166H229.602V164ZM227.542 168.9C227.637 168.9 227.671 168.921 227.716 168.968L229.168 167.592C228.732 167.133 228.166 166.9 227.542 166.9V168.9ZM227.584 167.766L227.344 168.166L229.059 169.194L229.299 168.794L227.584 167.766ZM227.231 168.437L227.211 168.517L229.152 169.003L229.172 168.923L227.231 168.437ZM228.736 167.928L228.676 167.888L227.567 169.552L227.627 169.592L228.736 167.928ZM229.092 168.477C229.073 168.402 229.039 168.278 228.976 168.153L227.187 169.047C227.176 169.025 227.168 169.006 227.163 168.994C227.158 168.981 227.155 168.972 227.153 168.966C227.149 168.956 227.149 168.954 227.151 168.963L229.092 168.477ZM228.914 168.045C228.769 167.829 228.58 167.697 228.456 167.623L227.427 169.337C227.424 169.336 227.404 169.324 227.376 169.299C227.348 169.275 227.299 169.229 227.25 169.155L228.914 168.045ZM228.496 167.648C228.181 167.438 227.832 167.36 227.502 167.36V169.36C227.512 169.36 227.502 169.361 227.478 169.355C227.454 169.348 227.421 169.335 227.387 169.312L228.496 167.648ZM227.502 167.36C227.139 167.36 226.8 167.46 226.498 167.636L227.505 169.364C227.517 169.357 227.52 169.357 227.516 169.358C227.514 169.358 227.512 169.359 227.509 169.359C227.506 169.36 227.503 169.36 227.502 169.36V167.36ZM226.554 167.606C226.17 167.798 225.901 168.106 225.727 168.453L227.516 169.347C227.524 169.331 227.525 169.335 227.512 169.349C227.497 169.364 227.476 169.381 227.449 169.394L226.554 167.606ZM225.753 168.404C225.542 168.774 225.462 169.181 225.462 169.58H227.462C227.462 169.446 227.488 169.399 227.49 169.396L225.753 168.404ZM225.462 169.58V171.38H227.462V169.58H225.462ZM226.462 170.38H225.922V172.38H226.462V170.38ZM226.922 171.38V167.98H224.922V171.38H226.922ZM225.922 168.98H226.482V166.98H225.922V168.98ZM225.482 167.948L225.462 168.568L227.461 168.632L227.481 168.012L225.482 167.948ZM227.378 169.001C227.392 168.969 227.41 168.943 227.456 168.912L226.347 167.248C225.993 167.484 225.718 167.805 225.545 168.199L227.378 169.001ZM227.416 168.937C227.465 168.908 227.502 168.9 227.542 168.9V166.9C227.128 166.9 226.738 167.012 226.387 167.223L227.416 168.937ZM230.203 165H229.203V166H230.203V165ZM230.203 153.2V152.2H229.203V153.2H230.203ZM230.803 153.2H231.803V152.2H230.803V153.2ZM230.803 165V166H231.803V165H230.803ZM233.203 165H232.203V166H233.203V165ZM233.203 153.2V152.2H232.203V153.2H233.203ZM234.403 153.2H235.403V152.2H234.403V153.2ZM234.403 165V166H235.403V165H234.403ZM235.003 165H234.003V166H235.003V165ZM235.003 153.2V152.2H234.003V153.2H235.003ZM235.603 153.2H236.603V152.2H235.603V153.2ZM235.603 165V166H236.603V165H235.603ZM232.383 170.94V169.94H231.383V170.94H232.383ZM233.263 170.94V171.94H234.263V170.94H233.263ZM233.263 168.42H234.263V167.42H233.263V168.42ZM232.423 168.42H231.423V169.42H232.423V168.42ZM232.423 167.98V166.98H231.423V167.98H232.423ZM233.783 167.98H234.783V166.98H233.783V167.98ZM233.783 170.94H232.783V171.94H233.783V170.94ZM234.583 170.94H235.583V169.94H234.583V170.94ZM234.583 171.38V172.38H235.583V171.38H234.583ZM232.383 171.38H231.383V172.38H232.383V171.38ZM233.223 167.16L232.455 167.8L232.513 167.87L232.583 167.928L233.223 167.16ZM233.223 166.62L233.93 167.327L233.962 167.295L233.991 167.26L233.223 166.62ZM233.763 166.62L233.056 167.327L233.056 167.327L233.763 166.62ZM233.763 167.16L234.403 167.928L234.438 167.899L234.47 167.867L233.763 167.16ZM231.203 165V153.2H229.203V165H231.203ZM230.203 154.2H230.803V152.2H230.203V154.2ZM229.803 153.2V165H231.803V153.2H229.803ZM230.803 164H230.203V166H230.803V164ZM234.203 165V153.2H232.203V165H234.203ZM233.203 154.2H234.403V152.2H233.203V154.2ZM233.403 153.2V165H235.403V153.2H233.403ZM234.403 164H233.203V166H234.403V164ZM236.003 165V153.2H234.003V165H236.003ZM235.003 154.2H235.603V152.2H235.003V154.2ZM234.603 153.2V165H236.603V153.2H234.603ZM235.603 164H235.003V166H235.603V164ZM232.383 171.94H233.263V169.94H232.383V171.94ZM234.263 170.94V168.42H232.263V170.94H234.263ZM233.263 167.42H232.423V169.42H233.263V167.42ZM233.423 168.42V167.98H231.423V168.42H233.423ZM232.423 168.98H233.783V166.98H232.423V168.98ZM232.783 167.98V170.94H234.783V167.98H232.783ZM233.783 171.94H234.583V169.94H233.783V171.94ZM233.583 170.94V171.38H235.583V170.94H233.583ZM234.583 170.38H232.383V172.38H234.583V170.38ZM233.383 171.38V170.94H231.383V171.38H233.383ZM233.503 166.26C233.556 166.26 233.62 166.269 233.689 166.293C233.759 166.318 233.818 166.354 233.863 166.392L232.583 167.928C232.847 168.149 233.169 168.26 233.503 168.26V166.26ZM233.991 166.52C234.029 166.565 234.065 166.624 234.09 166.694C234.115 166.763 234.123 166.827 234.123 166.88H232.123C232.123 167.214 232.235 167.536 232.455 167.8L233.991 166.52ZM234.123 166.88C234.123 166.931 234.115 167.007 234.081 167.094C234.047 167.183 233.994 167.263 233.93 167.327L232.516 165.913C232.237 166.192 232.123 166.546 232.123 166.88H234.123ZM233.991 167.26C233.926 167.338 233.839 167.405 233.737 167.449C233.639 167.491 233.554 167.5 233.503 167.5V165.5C233.137 165.5 232.742 165.636 232.455 165.98L233.991 167.26ZM233.503 167.5C233.402 167.5 233.304 167.477 233.219 167.438C233.137 167.4 233.084 167.355 233.056 167.327L234.47 165.913C234.245 165.688 233.916 165.5 233.503 165.5V167.5ZM233.056 167.327C233.028 167.299 232.983 167.246 232.945 167.164C232.906 167.079 232.883 166.981 232.883 166.88H234.883C234.883 166.467 234.695 166.138 234.47 165.913L233.056 167.327ZM232.883 166.88C232.883 166.805 232.898 166.72 232.934 166.636C232.97 166.553 233.016 166.493 233.056 166.453L234.47 167.867C234.725 167.612 234.883 167.269 234.883 166.88H232.883ZM233.123 166.392C233.157 166.363 233.209 166.329 233.279 166.302C233.351 166.274 233.428 166.26 233.503 166.26V168.26C233.858 168.26 234.166 168.126 234.403 167.928L233.123 166.392ZM236.805 165H235.805V166H236.805V165ZM236.805 153.2V152.2H235.805V153.2H236.805ZM239.205 153.2H240.205V152.2H239.205V153.2ZM239.205 165V166H240.205V165H239.205ZM239.805 165H238.805V166H239.805V165ZM239.805 153.2V152.2H238.805V153.2H239.805ZM241.605 153.2H242.605V152.2H241.605V153.2ZM241.605 165V166H242.605V165H241.605ZM242.205 165H241.205V166H242.205V165ZM242.205 153.2V152.2H241.205V153.2H242.205ZM242.805 153.2H243.805V152.2H242.805V153.2ZM242.805 165V166H243.805V165H242.805ZM238.525 167.98V166.98H237.525V167.98H238.525ZM239.025 167.98H240.025V166.98H239.025V167.98ZM239.025 168.32H238.025V171.623L239.857 168.875L239.025 168.32ZM239.325 168.02L238.77 167.188L238.77 167.188L239.325 168.02ZM240.105 168.04L240.763 167.287L240.741 167.268L240.719 167.251L240.105 168.04ZM240.305 168.4L239.321 168.579L239.893 171.723L241.215 168.814L240.305 168.4ZM240.625 168.04L241.162 168.884L241.18 168.872L241.198 168.859L240.625 168.04ZM241.585 168.14L242.417 167.585L242.401 167.562L242.385 167.54L241.585 168.14ZM241.725 168.78L240.726 168.73L240.725 168.755V168.78H241.725ZM241.725 171.38V172.38H242.725V171.38H241.725ZM241.245 171.38H240.245V172.38H241.245V171.38ZM241.165 168.42L240.333 168.975L240.333 168.975L241.165 168.42ZM240.665 168.42L239.958 167.713L239.958 167.713L240.665 168.42ZM240.465 168.74L241.393 169.111L241.393 169.111L240.465 168.74ZM240.385 171.38V172.38H241.385V171.38H240.385ZM239.885 171.38H238.885V172.38H239.885V171.38ZM239.805 168.46L238.91 168.907L238.923 168.932L238.936 168.956L239.805 168.46ZM239.285 168.4L238.645 167.632L238.645 167.632L239.285 168.4ZM239.085 168.7L238.156 168.329L238.145 168.356L238.136 168.384L239.085 168.7ZM239.025 171.38V172.38H240.025V171.38H239.025ZM238.525 171.38H237.525V172.38H238.525V171.38ZM237.805 165V153.2H235.805V165H237.805ZM236.805 154.2H239.205V152.2H236.805V154.2ZM238.205 153.2V165H240.205V153.2H238.205ZM239.205 164H236.805V166H239.205V164ZM240.805 165V153.2H238.805V165H240.805ZM239.805 154.2H241.605V152.2H239.805V154.2ZM240.605 153.2V165H242.605V153.2H240.605ZM241.605 164H239.805V166H241.605V164ZM243.205 165V153.2H241.205V165H243.205ZM242.205 154.2H242.805V152.2H242.205V154.2ZM241.805 153.2V165H243.805V153.2H241.805ZM242.805 164H242.205V166H242.805V164ZM238.525 168.98H239.025V166.98H238.525V168.98ZM238.025 167.98V168.32H240.025V167.98H238.025ZM239.857 168.875C239.864 168.865 239.869 168.859 239.879 168.852L238.77 167.188C238.54 167.341 238.346 167.535 238.193 167.765L239.857 168.875ZM239.879 168.852C239.868 168.86 239.845 168.873 239.811 168.884C239.776 168.894 239.74 168.9 239.705 168.9V166.9C239.358 166.9 239.04 167.008 238.77 167.188L239.879 168.852ZM239.705 168.9C239.67 168.9 239.628 168.894 239.584 168.879C239.541 168.864 239.51 168.844 239.491 168.829L240.719 167.251C240.43 167.026 240.082 166.9 239.705 166.9V168.9ZM239.446 168.793C239.416 168.766 239.385 168.73 239.361 168.686C239.336 168.642 239.325 168.604 239.321 168.579L241.289 168.221C241.224 167.864 241.049 167.538 240.763 167.287L239.446 168.793ZM241.215 168.814C241.207 168.831 241.196 168.849 241.182 168.864C241.169 168.879 241.16 168.885 241.162 168.884L240.088 167.196C239.791 167.385 239.548 167.649 239.394 167.986L241.215 168.814ZM241.198 168.859C241.18 168.872 241.157 168.884 241.131 168.892C241.106 168.899 241.089 168.9 241.085 168.9V166.9C240.72 166.9 240.364 167.002 240.051 167.221L241.198 168.859ZM241.085 168.9C241.065 168.9 241.008 168.896 240.937 168.862C240.864 168.826 240.813 168.778 240.785 168.74L242.385 167.54C242.062 167.109 241.588 166.9 241.085 166.9V168.9ZM240.753 168.695C240.741 168.677 240.733 168.661 240.728 168.65C240.724 168.639 240.723 168.633 240.723 168.634C240.724 168.637 240.729 168.666 240.726 168.73L242.723 168.83C242.743 168.43 242.681 167.981 242.417 167.585L240.753 168.695ZM240.725 168.78V171.38H242.725V168.78H240.725ZM241.725 170.38H241.245V172.38H241.725V170.38ZM242.245 171.38V168.98H240.245V171.38H242.245ZM242.245 168.98C242.245 168.809 242.237 168.637 242.215 168.479C242.197 168.353 242.153 168.1 241.997 167.865L240.333 168.975C240.301 168.927 240.28 168.885 240.267 168.856C240.254 168.826 240.246 168.802 240.242 168.787C240.234 168.76 240.233 168.748 240.235 168.761C240.236 168.773 240.239 168.797 240.241 168.835C240.243 168.874 240.245 168.921 240.245 168.98H242.245ZM241.997 167.865C241.735 167.473 241.323 167.3 240.925 167.3V169.3C240.852 169.3 240.741 169.286 240.617 169.224C240.49 169.161 240.395 169.068 240.333 168.975L241.997 167.865ZM240.925 167.3C240.512 167.3 240.183 167.488 239.958 167.713L241.372 169.127C241.343 169.155 241.29 169.2 241.209 169.238C241.124 169.277 241.026 169.3 240.925 169.3V167.3ZM239.958 167.713C239.76 167.911 239.627 168.142 239.536 168.369L241.393 169.111C241.401 169.092 241.405 169.086 241.403 169.09C241.4 169.094 241.391 169.108 241.372 169.127L239.958 167.713ZM239.536 168.369C239.439 168.611 239.385 168.87 239.385 169.14H241.385C241.385 169.14 241.385 169.139 241.385 169.136C241.386 169.133 241.388 169.125 241.393 169.111L239.536 168.369ZM239.385 169.14V171.38H241.385V169.14H239.385ZM240.385 170.38H239.885V172.38H240.385V170.38ZM240.885 171.38V169.02H238.885V171.38H240.885ZM240.885 169.02C240.885 168.853 240.877 168.685 240.855 168.529C240.835 168.39 240.793 168.173 240.673 167.964L238.936 168.956C238.917 168.922 238.904 168.892 238.895 168.871C238.886 168.849 238.881 168.832 238.878 168.822C238.873 168.803 238.873 168.797 238.875 168.811C238.877 168.824 238.879 168.848 238.881 168.885C238.883 168.921 238.885 168.965 238.885 169.02H240.885ZM240.699 168.013C240.434 167.483 239.925 167.3 239.505 167.3V169.3C239.461 169.3 239.35 169.292 239.219 169.222C239.076 169.146 238.971 169.029 238.91 168.907L240.699 168.013ZM239.505 167.3C239.104 167.3 238.809 167.495 238.645 167.632L239.925 169.168C239.915 169.176 239.878 169.206 239.813 169.235C239.747 169.266 239.641 169.3 239.505 169.3V167.3ZM238.645 167.632C238.398 167.837 238.249 168.097 238.156 168.329L240.013 169.071C240.019 169.057 240.018 169.062 240.007 169.08C239.995 169.098 239.969 169.131 239.925 169.168L238.645 167.632ZM238.136 168.384C238.054 168.629 238.025 168.88 238.025 169.12H240.025C240.025 169.04 240.035 169.011 240.033 169.016L238.136 168.384ZM238.025 169.12V171.38H240.025V169.12H238.025ZM239.025 170.38H238.525V172.38H239.025V170.38ZM239.525 171.38V167.98H237.525V171.38H239.525Z" fill="black" mask="url(#path-4-outside-1_0_1)"/>
</svg>
