<?xml version="1.0" standalone="no"?>
<!DOCTYPE svg PUBLIC "-//W3C//DTD SVG 20010904//EN"
 "http://www.w3.org/TR/2001/REC-SVG-20010904/DTD/svg10.dtd">
<svg version="1.0" xmlns="http://www.w3.org/2000/svg"
 width="96.000000pt" height="96.000000pt" viewBox="0 0 96.000000 96.000000"
 preserveAspectRatio="xMidYMid meet">

<g transform="translate(0.000000,96.000000) scale(0.100000,-0.100000)"
fill="#000000" stroke="none">
<path d="M15 940 c-12 -20 7 -30 56 -30 42 0 49 3 49 20 0 17 -7 20 -49 20
-28 0 -53 -4 -56 -10z"/>
<path d="M240 930 c0 -20 7 -20 314 -20 211 0 317 -4 321 -11 6 -10 -31 -548
-41 -596 l-4 -23 -305 0 -305 0 0 23 c0 12 21 89 45 172 25 82 43 155 41 162
-4 8 -24 13 -56 13 -43 0 -50 -3 -50 -20 0 -16 7 -20 30 -20 17 0 30 -2 30 -5
0 -3 -20 -73 -45 -155 -49 -164 -49 -192 0 -210 34 -13 586 -13 620 0 14 5 29
20 34 32 7 21 51 543 51 611 0 15 -9 36 -20 47 -19 19 -33 20 -340 20 -313 0
-320 0 -320 -20z"/>
<path d="M90 780 c0 -19 7 -20 130 -20 123 0 130 1 130 20 0 19 -7 20 -130 20
-123 0 -130 -1 -130 -20z"/>
<path d="M433 783 c-5 -10 -8 -58 -8 -108 0 -69 5 -99 20 -130 37 -75 97 -73
181 7 60 57 164 203 164 231 0 36 -29 14 -83 -66 -56 -82 -155 -187 -177 -187
-48 0 -74 76 -68 196 2 47 -1 68 -9 71 -7 3 -16 -4 -20 -14z"/>
<path d="M224 181 c-82 -50 -60 -171 32 -171 28 0 44 8 70 34 85 85 1 200
-102 137z m84 -33 c19 -19 14 -55 -10 -78 -26 -24 -51 -26 -72 -4 -22 22 -20
41 9 69 26 27 54 32 73 13z"/>
<path d="M674 181 c-82 -50 -60 -171 32 -171 28 0 44 8 70 34 85 85 1 200
-102 137z m84 -33 c19 -19 14 -55 -10 -78 -26 -24 -51 -26 -72 -4 -22 22 -20
41 9 69 26 27 54 32 73 13z"/>
</g>
</svg>
