<svg xmlns="http://www.w3.org/2000/svg" width="96" height="96" viewBox="0 0 96 96" version="1.1"><path d="M 1 1.500 C -1.720 4.777, 5.749 7.568, 11.418 5.393 C 13.464 4.608, 13.464 1.392, 11.418 0.607 C 8.427 -0.541, 2.254 -0.012, 1 1.500 M 24.250 0.662 C 23.563 0.940, 23 1.992, 23 3 C 23 4.008, 23.563 5.021, 24.250 5.251 C 24.938 5.480, 39.140 5.456, 55.812 5.196 C 74.946 4.898, 86.486 5.086, 87.105 5.705 C 87.978 6.578, 84.966 54.765, 83.414 64.750 L 82.909 68 52.455 68 C 23.574 68, 22 67.905, 22 66.164 C 22 65.154, 24.020 57.617, 26.488 49.414 C 28.957 41.211, 30.982 33.761, 30.988 32.857 C 31.002 30.951, 29.009 30, 25 30 C 20.849 30, 19 30.965, 19 33.132 C 19 34.463, 19.918 35.234, 22 35.650 C 23.650 35.980, 25 36.503, 25 36.812 C 25 37.122, 23.200 43.335, 21 50.620 C 16.449 65.689, 16.202 68.202, 19 71 C 20.915 72.915, 22.333 73, 52.500 73 C 82.216 73, 84.109 72.891, 85.918 71.082 C 88.165 68.835, 88.321 67.648, 91.020 32.206 C 93.167 4.021, 93.058 2.733, 88.374 0.952 C 85.840 -0.011, 26.583 -0.279, 24.250 0.662 M 9.250 15.662 C 7.470 16.380, 7.701 19.671, 9.582 20.393 C 10.452 20.727, 15.991 21, 21.891 21 C 33.744 21, 37.655 19.699, 35.090 16.608 C 33.996 15.290, 31.657 15.014, 22.128 15.079 C 15.732 15.122, 9.938 15.385, 9.250 15.662 M 42.428 20.635 C 41.474 26.991, 42.539 38.209, 44.446 41.895 C 45.312 43.570, 46.978 45.453, 48.148 46.079 C 50.995 47.603, 56.207 46.646, 59.888 43.925 C 65.946 39.446, 80.717 18.968, 79.412 16.857 C 78.061 14.672, 75.658 16.597, 70.860 23.707 C 62.051 36.762, 54.392 43.855, 50.655 42.421 C 47.856 41.347, 46.572 35.880, 46.747 25.782 C 46.903 16.784, 46.764 16, 45.019 16 C 43.530 16, 42.973 16.995, 42.428 20.635 M 26 75.631 C 21.977 77.012, 19.705 78.670, 18.415 81.165 C 14 89.703, 20.789 98.231, 29.177 94.682 C 33.768 92.740, 36.077 89.844, 36.692 85.258 C 37.113 82.121, 36.755 80.846, 34.857 78.718 C 32.451 76.020, 28.688 74.709, 26 75.631 M 71 75.631 C 66.977 77.012, 64.705 78.670, 63.415 81.165 C 59 89.703, 65.789 98.231, 74.177 94.682 C 78.768 92.740, 81.077 89.844, 81.692 85.258 C 82.113 82.121, 81.755 80.846, 79.857 78.718 C 77.451 76.020, 73.688 74.709, 71 75.631 M 24.198 81.750 C 21.310 84.247, 20.610 87.468, 22.537 89.395 C 23.420 90.278, 24.725 91, 25.437 91 C 27.777 91, 32 86.899, 32 84.627 C 32 80.134, 27.840 78.600, 24.198 81.750 M 69.198 81.750 C 66.310 84.247, 65.610 87.468, 67.537 89.395 C 68.420 90.278, 69.725 91, 70.437 91 C 72.777 91, 77 86.899, 77 84.627 C 77 80.134, 72.840 78.600, 69.198 81.750" stroke="none" fill="#484f56" fill-rule="evenodd"/><path d="M 35.488 10.036 C 34.111 14.183, 34.043 15.347, 35.108 16.631 C 36.194 17.939, 36.052 18.454, 34.222 19.844 C 31.979 21.548, 28.485 31, 30.098 31 C 31.694 31, 31.066 34.203, 26.488 49.414 C 24.020 57.617, 22 65.154, 22 66.164 C 22 67.905, 23.574 68, 52.455 68 L 82.909 68 83.414 64.750 C 84.523 57.614, 88.029 6.856, 87.475 5.959 C 87.122 5.389, 76.813 5, 62.021 5 L 37.161 5 35.488 10.036 M 42.428 20.635 C 41.474 26.991, 42.539 38.209, 44.446 41.895 C 45.312 43.570, 46.978 45.453, 48.148 46.079 C 50.995 47.603, 56.207 46.646, 59.888 43.925 C 65.946 39.446, 80.717 18.968, 79.412 16.857 C 78.061 14.672, 75.658 16.597, 70.860 23.707 C 62.051 36.762, 54.392 43.855, 50.655 42.421 C 47.856 41.347, 46.572 35.880, 46.747 25.782 C 46.903 16.784, 46.764 16, 45.019 16 C 43.530 16, 42.973 16.995, 42.428 20.635 M 24.198 81.750 C 21.310 84.247, 20.610 87.468, 22.537 89.395 C 23.420 90.278, 24.725 91, 25.437 91 C 27.777 91, 32 86.899, 32 84.627 C 32 80.134, 27.840 78.600, 24.198 81.750 M 69.198 81.750 C 66.310 84.247, 65.610 87.468, 67.537 89.395 C 68.420 90.278, 69.725 91, 70.437 91 C 72.777 91, 77 86.899, 77 84.627 C 77 80.134, 72.840 78.600, 69.198 81.750" stroke="none" fill="#f5e9ad" fill-rule="evenodd"/></svg>