<?xml version="1.0" standalone="no"?>
<!DOCTYPE svg PUBLIC "-//W3C//DTD SVG 20010904//EN"
 "http://www.w3.org/TR/2001/REC-SVG-20010904/DTD/svg10.dtd">
<svg version="1.0" xmlns="http://www.w3.org/2000/svg"
 width="32.000000pt" height="32.000000pt" viewBox="0 0 32.000000 32.000000"
 preserveAspectRatio="xMidYMid meet">

<g transform="translate(0.000000,32.000000) scale(0.100000,-0.100000)"
fill="#000000" stroke="none">
<path d="M10 310 c0 -5 5 -10 10 -10 6 0 10 5 10 10 0 6 -4 10 -10 10 -5 0
-10 -4 -10 -10z"/>
<path d="M85 310 c3 -6 50 -10 106 -10 l99 0 0 -44 c0 -23 -3 -71 -6 -105 l-7
-61 -103 0 c-57 0 -104 4 -104 9 0 5 7 28 15 51 8 23 15 49 15 56 0 8 -7 14
-15 14 -8 0 -15 -4 -15 -10 0 -5 4 -10 9 -10 5 0 3 -21 -5 -47 -8 -26 -12 -53
-10 -60 8 -19 215 -18 222 1 11 30 21 201 11 214 -12 15 -222 18 -212 2z"/>
<path d="M40 260 c0 -5 16 -10 35 -10 19 0 35 5 35 10 0 6 -16 10 -35 10 -19
0 -35 -4 -35 -10z"/>
<path d="M140 226 c0 -44 24 -70 50 -56 22 12 75 78 68 85 -3 3 -19 -13 -37
-35 -17 -22 -38 -40 -46 -40 -16 0 -30 42 -21 65 3 8 1 15 -4 15 -6 0 -10 -15
-10 -34z"/>
<path d="M67 54 c-4 -4 -7 -16 -7 -26 0 -15 6 -19 28 -16 19 2 27 9 27 23 0
20 -33 33 -48 19z m43 -14 c0 -12 -28 -25 -36 -17 -9 9 6 27 22 27 8 0 14 -5
14 -10z"/>
<path d="M217 54 c-4 -4 -7 -16 -7 -26 0 -15 6 -19 28 -16 19 2 27 9 27 23 0
20 -33 33 -48 19z m43 -14 c0 -12 -28 -25 -36 -17 -9 9 6 27 22 27 8 0 14 -5
14 -10z"/>
</g>
</svg>
